<svg id="kity_svg_6" xmlns="http://www.w3.org/2000/svg" xmlns:xlink="http://www.w3.org/1999/xlink" version="1.1" width="1516" height="1720" style="background: rgb(251, 251, 251); visibility: visible;" viewBox="0 0 1516 1720"><defs id="kity_defs_7"><linearGradient id="kity_linearGradient_17" x1="0" y1="0" x2="0" y2="1"><stop id="kity_stop_18" offset="0" stop-color="rgb(255, 255, 255)"></stop><stop id="kity_stop_19" offset="1" stop-color="rgb(204, 204, 204)"></stop></linearGradient><marker id="kity_marker_2" orient="auto" refX="6" refY="0" viewBox="-7 -7 14 14" markerWidth="7" markerHeight="7" markerUnits="userSpaceOnUse"><path id="kity_path_3" fill="rgb(115, 161, 191)" stroke="none" d="M6,0A6,6,0,1,1,-6,0A6,6,0,1,1,6,0"></path></marker></defs><g id="kity_g_8"><g id="minder1" text-rendering="optimize-speed"><g id="minder_connect_group1"><path id="kity_path_31" fill="none" stroke="rgb(115, 161, 191)" stroke-width="1" d="M535.5,967.5A69,488,0,0,1,604.5,479.5"></path><path id="kity_path_33" fill="none" stroke="rgb(115, 161, 191)" stroke-width="1" d="M660.5,479.5C675.5,479.5,675.5,214.5,690.5,214.5L756.5,214.5"></path><path id="kity_path_35" fill="none" stroke="rgb(115, 161, 191)" stroke-width="1" d="M756.5,214.5C771.5,214.5,771.5,71.5,786.5,71.5L864.5,71.5"></path><path id="kity_path_37" fill="none" stroke="rgb(115, 161, 191)" stroke-width="1" d="M864.5,71.5C879.5,71.5,879.5,45.5,894.5,45.5L972.5,45.5"></path><path id="kity_path_39" fill="none" stroke="rgb(115, 161, 191)" stroke-width="1" d="M864.5,71.5C879.5,71.5,879.5,97.5,894.5,97.5L972.5,97.5"></path><path id="kity_path_41" fill="none" stroke="rgb(115, 161, 191)" stroke-width="1" d="M756.5,214.5C771.5,214.5,771.5,201.5,786.5,201.5L864.5,201.5"></path><path id="kity_path_43" fill="none" stroke="rgb(115, 161, 191)" stroke-width="1" d="M864.5,201.5C879.5,201.5,879.5,149.5,894.5,149.5L972.5,149.5"></path><path id="kity_path_45" fill="none" stroke="rgb(115, 161, 191)" stroke-width="1" d="M864.5,201.5C879.5,201.5,879.5,253.5,894.5,253.5L972.5,253.5"></path><path id="kity_path_47" fill="none" stroke="rgb(115, 161, 191)" stroke-width="1" d="M972.5,253.5C987.5,253.5,987.5,201.5,1002.5,201.5L1080.5,201.5"></path><path id="kity_path_49" fill="none" stroke="rgb(115, 161, 191)" stroke-width="1" d="M972.5,253.5C987.5,253.5,987.5,253.5,1002.5,253.5L1080.5,253.5"></path><path id="kity_path_51" fill="none" stroke="rgb(115, 161, 191)" stroke-width="1" d="M972.5,253.5C987.5,253.5,987.5,305.5,1002.5,305.5L1080.5,305.5"></path><path id="kity_path_53" fill="none" stroke="rgb(115, 161, 191)" stroke-width="1" d="M756.5,214.5C771.5,214.5,771.5,357.5,786.5,357.5L840.5,357.5"></path><path id="kity_path_55" fill="none" stroke="rgb(115, 161, 191)" stroke-width="1" d="M840.5,357.5C855.5,357.5,855.5,357.5,870.5,357.5L1096.5,357.5"></path><path id="kity_path_57" fill="none" stroke="rgb(115, 161, 191)" stroke-width="1" d="M660.5,479.5C675.5,479.5,675.5,513.5,690.5,513.5L780.5,513.5"></path><path id="kity_path_59" fill="none" stroke="rgb(115, 161, 191)" stroke-width="1" d="M780.5,513.5C795.5,513.5,795.5,409.5,810.5,409.5L1291.5,409.5"></path><path id="kity_path_61" fill="none" stroke="rgb(115, 161, 191)" stroke-width="1" d="M780.5,513.5C795.5,513.5,795.5,461.5,810.5,461.5L972.5,461.5"></path><path id="kity_path_63" fill="none" stroke="rgb(115, 161, 191)" stroke-width="1" d="M780.5,513.5C795.5,513.5,795.5,513.5,810.5,513.5L1123.5,513.5"></path><path id="kity_path_65" fill="none" stroke="rgb(115, 161, 191)" stroke-width="1" d="M780.5,513.5C795.5,513.5,795.5,565.5,810.5,565.5L1496.5,565.5"></path><path id="kity_path_67" fill="none" stroke="rgb(115, 161, 191)" stroke-width="1" d="M780.5,513.5C795.5,513.5,795.5,617.5,810.5,617.5L1288.5,617.5"></path><path id="kity_path_69" fill="none" stroke="rgb(115, 161, 191)" stroke-width="1" d="M660.5,479.5C675.5,479.5,675.5,669.5,690.5,669.5L780.5,669.5"></path><path id="kity_path_71" fill="none" stroke="rgb(115, 161, 191)" stroke-width="1" d="M780.5,669.5C795.5,669.5,795.5,669.5,810.5,669.5L1126.5,669.5"></path><path id="kity_path_73" fill="none" stroke="rgb(115, 161, 191)" stroke-width="1" d="M660.5,479.5C675.5,479.5,675.5,721.5,690.5,721.5L768.5,721.5"></path><path id="kity_path_75" fill="none" stroke="rgb(115, 161, 191)" stroke-width="1" d="M768.5,721.5C783.5,721.5,783.5,721.5,798.5,721.5L1041.5,721.5"></path><path id="kity_path_77" fill="none" stroke="rgb(115, 161, 191)" stroke-width="1" d="M660.5,479.5C675.5,479.5,675.5,773.5,690.5,773.5L780.5,773.5"></path><path id="kity_path_79" fill="none" stroke="rgb(115, 161, 191)" stroke-width="1" d="M780.5,773.5C795.5,773.5,795.5,773.5,810.5,773.5L960.5,773.5"></path><path id="kity_path_81" fill="none" stroke="rgb(115, 161, 191)" stroke-width="1" d="M535.5,967.5A174,52,0,0,1,709.5,915.5"></path><path id="kity_path_83" fill="none" stroke="rgb(115, 161, 191)" stroke-width="1" d="M535.5,967.5A250,322,0,0,0,785.5,1289.5"></path><path id="kity_path_85" fill="none" stroke="rgb(115, 161, 191)" stroke-width="1" d="M869.5,1289.5C884.5,1289.5,884.5,972.5,899.5,972.5L953.5,972.5"></path><path id="kity_path_87" fill="none" stroke="rgb(115, 161, 191)" stroke-width="1" d="M953.5,972.5C968.5,972.5,968.5,920.5,983.5,920.5L1088.5,920.5"></path><path id="kity_path_89" fill="none" stroke="rgb(115, 161, 191)" stroke-width="1" d="M953.5,972.5C968.5,972.5,968.5,972.5,983.5,972.5L1087.5,972.5"></path><path id="kity_path_91" fill="none" stroke="rgb(115, 161, 191)" stroke-width="1" d="M953.5,972.5C968.5,972.5,968.5,1024.5,983.5,1024.5L1109.5,1024.5"></path><path id="kity_path_93" fill="none" stroke="rgb(115, 161, 191)" stroke-width="1" d="M869.5,1289.5C884.5,1289.5,884.5,1128.5,899.5,1128.5L953.5,1128.5"></path><path id="kity_path_95" fill="none" stroke="rgb(115, 161, 191)" stroke-width="1" d="M953.5,1128.5C968.5,1128.5,968.5,1076.5,983.5,1076.5L1061.5,1076.5"></path><path id="kity_path_97" fill="none" stroke="rgb(115, 161, 191)" stroke-width="1" d="M953.5,1128.5C968.5,1128.5,968.5,1128.5,983.5,1128.5L1061.5,1128.5"></path><path id="kity_path_99" fill="none" stroke="rgb(115, 161, 191)" stroke-width="1" d="M953.5,1128.5C968.5,1128.5,968.5,1180.5,983.5,1180.5L1061.5,1180.5"></path><path id="kity_path_101" fill="none" stroke="rgb(115, 161, 191)" stroke-width="1" d="M869.5,1289.5C884.5,1289.5,884.5,1258.5,899.5,1258.5L941.5,1258.5"></path><path id="kity_path_103" fill="none" stroke="rgb(115, 161, 191)" stroke-width="1" d="M941.5,1258.5C956.5,1258.5,956.5,1232.5,971.5,1232.5L1049.5,1232.5"></path><path id="kity_path_105" fill="none" stroke="rgb(115, 161, 191)" stroke-width="1" d="M941.5,1258.5C956.5,1258.5,956.5,1284.5,971.5,1284.5L1121.5,1284.5"></path><path id="kity_path_107" fill="none" stroke="rgb(115, 161, 191)" stroke-width="1" d="M869.5,1289.5C884.5,1289.5,884.5,1388.5,899.5,1388.5L953.5,1388.5"></path><path id="kity_path_109" fill="none" stroke="rgb(115, 161, 191)" stroke-width="1" d="M953.5,1388.5C968.5,1388.5,968.5,1336.5,983.5,1336.5L1061.5,1336.5"></path><path id="kity_path_111" fill="none" stroke="rgb(115, 161, 191)" stroke-width="1" d="M953.5,1388.5C968.5,1388.5,968.5,1388.5,983.5,1388.5L1061.5,1388.5"></path><path id="kity_path_113" fill="none" stroke="rgb(115, 161, 191)" stroke-width="1" d="M953.5,1388.5C968.5,1388.5,968.5,1440.5,983.5,1440.5L1103.5,1440.5"></path><path id="kity_path_115" fill="none" stroke="rgb(115, 161, 191)" stroke-width="1" d="M869.5,1289.5C884.5,1289.5,884.5,1635.5,899.5,1635.5L941.5,1635.5"></path><path id="kity_path_117" fill="none" stroke="rgb(115, 161, 191)" stroke-width="1" d="M941.5,1635.5C956.5,1635.5,956.5,1570.5,971.5,1570.5L1037.5,1570.5"></path><path id="kity_path_119" fill="none" stroke="rgb(115, 161, 191)" stroke-width="1" d="M1037.5,1570.5C1052.5,1570.5,1052.5,1492.5,1067.5,1492.5L1220.5,1492.5"></path><path id="kity_path_121" fill="none" stroke="rgb(115, 161, 191)" stroke-width="1" d="M1037.5,1570.5C1052.5,1570.5,1052.5,1544.5,1067.5,1544.5L1255.5,1544.5"></path><path id="kity_path_123" fill="none" stroke="rgb(115, 161, 191)" stroke-width="1" d="M1037.5,1570.5C1052.5,1570.5,1052.5,1596.5,1067.5,1596.5L1195.5,1596.5"></path><path id="kity_path_125" fill="none" stroke="rgb(115, 161, 191)" stroke-width="1" d="M1037.5,1570.5C1052.5,1570.5,1052.5,1648.5,1067.5,1648.5L1300.5,1648.5"></path><path id="kity_path_127" fill="none" stroke="rgb(115, 161, 191)" stroke-width="1" d="M941.5,1635.5C956.5,1635.5,956.5,1700.5,971.5,1700.5L1037.5,1700.5"></path><path id="kity_path_129" fill="none" stroke="rgb(115, 161, 191)" stroke-width="1" d="M535.5,967.5A174,108,0,0,0,361.5,859.5"></path><path id="kity_path_131" fill="none" stroke="rgb(115, 161, 191)" stroke-width="1" d="M277.5,859.5C262.5,859.5,262.5,834.5,247.5,834.5L145.5,834.5"></path><path id="kity_path_133" fill="none" stroke="rgb(115, 161, 191)" stroke-width="1" d="M145.5,834.5C130.5,834.5,130.5,808.5,115.5,808.5L49.5,808.5"></path><path id="kity_path_135" fill="none" stroke="rgb(115, 161, 191)" stroke-width="1" d="M145.5,834.5C130.5,834.5,130.5,860.5,115.5,860.5L25.5,860.5"></path><path id="kity_path_137" fill="none" stroke="rgb(115, 161, 191)" stroke-width="1" d="M277.5,859.5C262.5,859.5,262.5,912.5,247.5,912.5L121.5,912.5"></path><path id="kity_path_463" fill="none" stroke="rgb(115, 161, 191)" stroke-width="1" d="M535.5,967.5A174,19,0,0,1,361.5,986.5"></path><path id="kity_path_471" fill="none" stroke="rgb(115, 161, 191)" stroke-width="1" d="M535.5,967.5A174,109,0,0,1,361.5,1076.5"></path><path id="kity_path_479" fill="none" stroke="rgb(115, 161, 191)" stroke-width="1" d="M270.5,986.5C255.5,986.5,255.5,974.5,240.5,974.5L164.5,974.5"></path><path id="kity_path_487" fill="none" stroke="rgb(115, 161, 191)" stroke-width="1" d="M164.5,974.5C149.5,974.5,149.5,974.5,134.5,974.5L20.5,974.5"></path><path id="kity_path_495" fill="none" stroke="rgb(115, 161, 191)" stroke-width="1" d="M270.5,986.5C255.5,986.5,255.5,1026.5,240.5,1026.5L168.5,1026.5"></path><path id="kity_path_503" fill="none" stroke="rgb(115, 161, 191)" stroke-width="1" d="M259.5,1076.5C244.5,1076.5,244.5,1090.5,229.5,1090.5L143.5,1090.5"></path></g><g id="minder_node1"><path id="node_outline1" fill="rgb(115, 161, 191)" stroke="rgb(115, 161, 191)" d="M484.5,947.5h102a5,5,0,0,1,5,5v30a5,5,0,0,1,-5,5h-102a5,5,0,0,1,-5,-5v-30a5,5,0,0,1,5,-5z" stroke-width="3"></path><g id="node_text1" fill="white"><text id="kity_text_22" text-rendering="inherit" font-size="16" dy=".8em" y="959.5" x="503.5">数据结构</text></g></g><g id="kity_g_14" display="none"><path id="kity_path_15" fill="rgba(0, 92, 153, 0.5)" stroke="none" d="M164.5,950.5h66v15h-66z"></path><path id="kity_path_16" fill="none" stroke="rgb(0, 76, 128)" d="M164.5,950.5L230.5,950.5" stroke-width="1"></path></g><g id="minder_node2"><g id="node_expander25" style="cursor: pointer;"><path id="kity_path_373" fill="white" stroke="gray" d="M605.5,479.5A6,6,0,1,1,593.5,479.5A6,6,0,1,1,605.5,479.5"></path><path id="kity_path_374" fill="none" stroke="gray" d="M595,479.5L604,479.5"></path></g><path id="node_outline26" fill="rgb(238, 243, 246)" stroke="rgb(115, 161, 191)" d="M609.5,466.5h48a3,3,0,0,1,3,3v20a3,3,0,0,1,-3,3h-48a3,3,0,0,1,-3,-3v-20a3,3,0,0,1,3,-3z" stroke-width="1"></path><g id="node_text26" fill="black"><text id="kity_text_187" text-rendering="inherit" font-size="14" dy=".8em" y="472.5" x="626.5">树</text></g></g><g id="minder_node3"><g id="node_expander12" style="cursor: pointer;"><path id="kity_path_334" fill="white" stroke="gray" d="M700.5,200.5A6,6,0,1,1,688.5,200.5A6,6,0,1,1,700.5,200.5"></path><path id="kity_path_335" fill="none" stroke="gray" d="M690,200.5L699,200.5"></path></g><path id="node_outline13" fill="none" stroke="none" d="M705.5,189.5h46a5,5,0,0,1,5,5v12a5,5,0,0,1,-5,5h-46a5,5,0,0,1,-5,-5v-12a5,5,0,0,1,5,-5z"></path><g id="node_text13" fill="black"><text id="kity_text_161" text-rendering="inherit" font-size="12" dy=".8em" y="194.5" x="710.5">二叉树</text></g></g><g id="minder_node4"><g id="node_expander3" style="cursor: pointer;"><path id="kity_path_307" fill="white" stroke="gray" d="M796.5,57.5A6,6,0,1,1,784.5,57.5A6,6,0,1,1,796.5,57.5"></path><path id="kity_path_308" fill="none" stroke="gray" d="M786,57.5L795,57.5"></path></g><path id="node_outline4" fill="none" stroke="none" d="M801.5,46.5h58a5,5,0,0,1,5,5v12a5,5,0,0,1,-5,5h-58a5,5,0,0,1,-5,-5v-12a5,5,0,0,1,5,-5z"></path><g id="node_text4" fill="black"><text id="kity_text_143" text-rendering="inherit" font-size="12" dy=".8em" y="51.5" x="806.5">实现方式</text></g></g><g id="minder_node5"><g id="node_expander1" style="cursor: pointer;" display="none"><path id="kity_path_301" fill="white" stroke="gray" d="M904.5,31.5A6,6,0,1,1,892.5,31.5A6,6,0,1,1,904.5,31.5"></path><path id="kity_path_302" fill="none" stroke="gray"></path></g><path id="node_outline2" fill="none" stroke="none" d="M909.5,20.5h58a5,5,0,0,1,5,5v12a5,5,0,0,1,-5,5h-58a5,5,0,0,1,-5,-5v-12a5,5,0,0,1,5,-5z"></path><g id="node_text2" fill="black"><text id="kity_text_139" text-rendering="inherit" font-size="12" dy=".8em" y="25.5" x="914.5">顺序实现</text></g></g><g id="minder_node6"><g id="node_expander2" style="cursor: pointer;" display="none"><path id="kity_path_304" fill="white" stroke="gray" d="M904.5,83.5A6,6,0,1,1,892.5,83.5A6,6,0,1,1,904.5,83.5"></path><path id="kity_path_305" fill="none" stroke="gray"></path></g><path id="node_outline3" fill="none" stroke="none" d="M909.5,72.5h58a5,5,0,0,1,5,5v12a5,5,0,0,1,-5,5h-58a5,5,0,0,1,-5,-5v-12a5,5,0,0,1,5,-5z"></path><g id="node_text3" fill="black"><text id="kity_text_141" text-rendering="inherit" font-size="12" dy=".8em" y="77.5" x="914.5">链式实现</text></g></g><g id="minder_node7"><g id="node_expander9" style="cursor: pointer;"><path id="kity_path_325" fill="white" stroke="gray" d="M796.5,187.5A6,6,0,1,1,784.5,187.5A6,6,0,1,1,796.5,187.5"></path><path id="kity_path_326" fill="none" stroke="gray" d="M786,187.5L795,187.5"></path></g><path id="node_outline10" fill="none" stroke="none" d="M801.5,176.5h58a5,5,0,0,1,5,5v12a5,5,0,0,1,-5,5h-58a5,5,0,0,1,-5,-5v-12a5,5,0,0,1,5,-5z"></path><g id="node_text10" fill="black"><text id="kity_text_155" text-rendering="inherit" font-size="12" dy=".8em" y="181.5" x="806.5">遍历方式</text></g></g><g id="minder_node8"><g id="node_expander4" style="cursor: pointer;" display="none"><path id="kity_path_310" fill="white" stroke="gray" d="M904.5,135.5A6,6,0,1,1,892.5,135.5A6,6,0,1,1,904.5,135.5"></path><path id="kity_path_311" fill="none" stroke="gray"></path></g><path id="node_outline5" fill="none" stroke="none" d="M909.5,124.5h58a5,5,0,0,1,5,5v12a5,5,0,0,1,-5,5h-58a5,5,0,0,1,-5,-5v-12a5,5,0,0,1,5,-5z"></path><g id="node_text5" fill="black"><text id="kity_text_145" text-rendering="inherit" font-size="12" dy=".8em" y="129.5" x="914.5">广度优先</text></g></g><g id="minder_node9"><g id="node_expander8" style="cursor: pointer;"><path id="kity_path_322" fill="white" stroke="gray" d="M904.5,239.5A6,6,0,1,1,892.5,239.5A6,6,0,1,1,904.5,239.5"></path><path id="kity_path_323" fill="none" stroke="gray" d="M894,239.5L903,239.5"></path></g><path id="node_outline9" fill="none" stroke="none" d="M909.5,228.5h58a5,5,0,0,1,5,5v12a5,5,0,0,1,-5,5h-58a5,5,0,0,1,-5,-5v-12a5,5,0,0,1,5,-5z"></path><g id="node_text9" fill="black"><text id="kity_text_153" text-rendering="inherit" font-size="12" dy=".8em" y="233.5" x="914.5">深度优先</text></g></g><g id="minder_node10"><g id="node_expander5" style="cursor: pointer;" display="none"><path id="kity_path_313" fill="white" stroke="gray" d="M1012.5,187.5A6,6,0,1,1,1000.5,187.5A6,6,0,1,1,1012.5,187.5"></path><path id="kity_path_314" fill="none" stroke="gray"></path></g><path id="node_outline6" fill="none" stroke="none" d="M1017.5,176.5h58a5,5,0,0,1,5,5v12a5,5,0,0,1,-5,5h-58a5,5,0,0,1,-5,-5v-12a5,5,0,0,1,5,-5z"></path><g id="node_text6" fill="black"><text id="kity_text_147" text-rendering="inherit" font-size="12" dy=".8em" y="181.5" x="1022.5">前序遍历</text></g></g><g id="minder_node11"><g id="node_expander6" style="cursor: pointer;" display="none"><path id="kity_path_316" fill="white" stroke="gray" d="M1012.5,239.5A6,6,0,1,1,1000.5,239.5A6,6,0,1,1,1012.5,239.5"></path><path id="kity_path_317" fill="none" stroke="gray"></path></g><path id="node_outline7" fill="none" stroke="none" d="M1017.5,228.5h58a5,5,0,0,1,5,5v12a5,5,0,0,1,-5,5h-58a5,5,0,0,1,-5,-5v-12a5,5,0,0,1,5,-5z"></path><g id="node_text7" fill="black"><text id="kity_text_149" text-rendering="inherit" font-size="12" dy=".8em" y="233.5" x="1022.5">中序遍历</text></g></g><g id="minder_node12"><g id="node_expander7" style="cursor: pointer;" display="none"><path id="kity_path_319" fill="white" stroke="gray" d="M1012.5,291.5A6,6,0,1,1,1000.5,291.5A6,6,0,1,1,1012.5,291.5"></path><path id="kity_path_320" fill="none" stroke="gray"></path></g><path id="node_outline8" fill="none" stroke="none" d="M1017.5,280.5h58a5,5,0,0,1,5,5v12a5,5,0,0,1,-5,5h-58a5,5,0,0,1,-5,-5v-12a5,5,0,0,1,5,-5z"></path><g id="node_text8" fill="black"><text id="kity_text_151" text-rendering="inherit" font-size="12" dy=".8em" y="285.5" x="1022.5">后序遍历</text></g></g><g id="minder_node13"><g id="node_expander11" style="cursor: pointer;"><path id="kity_path_331" fill="white" stroke="gray" d="M796.5,343.5A6,6,0,1,1,784.5,343.5A6,6,0,1,1,796.5,343.5"></path><path id="kity_path_332" fill="none" stroke="gray" d="M786,343.5L795,343.5"></path></g><path id="node_outline12" fill="none" stroke="none" d="M801.5,332.5h34a5,5,0,0,1,5,5v12a5,5,0,0,1,-5,5h-34a5,5,0,0,1,-5,-5v-12a5,5,0,0,1,5,-5z"></path><g id="node_text12" fill="black"><text id="kity_text_159" text-rendering="inherit" font-size="12" dy=".8em" y="337.5" x="806.5">特点</text></g></g><g id="minder_node14"><g id="node_expander10" style="cursor: pointer;" display="none"><path id="kity_path_328" fill="white" stroke="gray" d="M880.5,343.5A6,6,0,1,1,868.5,343.5A6,6,0,1,1,880.5,343.5"></path><path id="kity_path_329" fill="none" stroke="gray"></path></g><path id="node_outline11" fill="none" stroke="none" d="M885.5,332.5h206a5,5,0,0,1,5,5v12a5,5,0,0,1,-5,5h-206a5,5,0,0,1,-5,-5v-12a5,5,0,0,1,5,-5z"></path><g id="node_text11" fill="black"><text id="kity_text_157" text-rendering="inherit" font-size="12" dy=".8em" y="337.5" x="890.5">深度为h的二叉树最多有2^h-1个节点</text></g></g><g id="minder_node15"><g id="node_expander18" style="cursor: pointer;"><path id="kity_path_352" fill="white" stroke="gray" d="M700.5,499.5A6,6,0,1,1,688.5,499.5A6,6,0,1,1,700.5,499.5"></path><path id="kity_path_353" fill="none" stroke="gray" d="M690,499.5L699,499.5"></path></g><path id="node_outline19" fill="none" stroke="none" d="M705.5,488.5h70a5,5,0,0,1,5,5v12a5,5,0,0,1,-5,5h-70a5,5,0,0,1,-5,-5v-12a5,5,0,0,1,5,-5z"></path><g id="node_text19" fill="black"><text id="kity_text_173" text-rendering="inherit" font-size="12" dy=".8em" y="493.5" x="710.5">完全二叉树</text></g></g><g id="minder_node16"><g id="node_expander13" style="cursor: pointer;" display="none"><path id="kity_path_337" fill="white" stroke="gray" d="M820.5,395.5A6,6,0,1,1,808.5,395.5A6,6,0,1,1,820.5,395.5"></path><path id="kity_path_338" fill="none" stroke="gray"></path></g><path id="node_outline14" fill="none" stroke="none" d="M825.5,384.5h461a5,5,0,0,1,5,5v12a5,5,0,0,1,-5,5h-461a5,5,0,0,1,-5,-5v-12a5,5,0,0,1,5,-5z"></path><g id="node_text14" fill="black"><text id="kity_text_163" text-rendering="inherit" font-size="12" dy=".8em" y="389.5" x="830.5">除了最后一层,其他层的节点数都是最大个数,且最后一层的叶子节点都连续靠在最左方</text></g></g><g id="minder_node17"><g id="node_expander14" style="cursor: pointer;" display="none"><path id="kity_path_340" fill="white" stroke="gray" d="M820.5,447.5A6,6,0,1,1,808.5,447.5A6,6,0,1,1,820.5,447.5"></path><path id="kity_path_341" fill="none" stroke="gray"></path></g><path id="node_outline15" fill="none" stroke="none" d="M825.5,436.5h142a5,5,0,0,1,5,5v12a5,5,0,0,1,-5,5h-142a5,5,0,0,1,-5,-5v-12a5,5,0,0,1,5,-5z"></path><g id="node_text15" fill="black"><text id="kity_text_165" text-rendering="inherit" font-size="12" dy=".8em" y="441.5" x="830.5">是平衡二叉树的一个特例</text></g></g><g id="minder_node18"><g id="node_expander15" style="cursor: pointer;" display="none"><path id="kity_path_343" fill="white" stroke="gray" d="M820.5,499.5A6,6,0,1,1,808.5,499.5A6,6,0,1,1,820.5,499.5"></path><path id="kity_path_344" fill="none" stroke="gray"></path></g><path id="node_outline16" fill="none" stroke="none" d="M825.5,488.5h293a5,5,0,0,1,5,5v12a5,5,0,0,1,-5,5h-293a5,5,0,0,1,-5,-5v-12a5,5,0,0,1,5,-5z"></path><g id="node_text16" fill="black"><text id="kity_text_167" text-rendering="inherit" font-size="12" dy=".8em" y="493.5" x="830.5">n个节点的完全二叉树，深度k为log(n) + 1 [向下取整]</text></g></g><g id="minder_node19"><g id="node_expander16" style="cursor: pointer;" display="none"><path id="kity_path_346" fill="white" stroke="gray" d="M820.5,551.5A6,6,0,1,1,808.5,551.5A6,6,0,1,1,820.5,551.5"></path><path id="kity_path_347" fill="none" stroke="gray"></path></g><path id="node_outline17" fill="none" stroke="none" d="M825.5,540.5h666a5,5,0,0,1,5,5v12a5,5,0,0,1,-5,5h-666a5,5,0,0,1,-5,-5v-12a5,5,0,0,1,5,-5z"></path><g id="node_text17" fill="black"><text id="kity_text_169" text-rendering="inherit" font-size="12" dy=".8em" y="545.5" x="830.5">采用顺序存储，那么节点序号(第一个节点序号为1)为k，如果有左右子节点，那么左子节点序号为2^k,右子节点序号为2^k+1</text></g></g><g id="minder_node20"><g id="node_expander17" style="cursor: pointer;" display="none"><path id="kity_path_349" fill="white" stroke="gray" d="M820.5,603.5A6,6,0,1,1,808.5,603.5A6,6,0,1,1,820.5,603.5"></path><path id="kity_path_350" fill="none" stroke="gray"></path></g><path id="node_outline18" fill="none" stroke="none" d="M825.5,592.5h458a5,5,0,0,1,5,5v12a5,5,0,0,1,-5,5h-458a5,5,0,0,1,-5,-5v-12a5,5,0,0,1,5,-5z"></path><g id="node_text18" fill="black"><text id="kity_text_171" text-rendering="inherit" font-size="12" dy=".8em" y="597.5" x="830.5">采用顺序存储，那么节点序号(第一个节点序号为1)为k，父节点序号为K/2 [向下取整]</text></g></g><g id="minder_node21"><g id="node_expander20" style="cursor: pointer;"><path id="kity_path_358" fill="white" stroke="gray" d="M700.5,655.5A6,6,0,1,1,688.5,655.5A6,6,0,1,1,700.5,655.5"></path><path id="kity_path_359" fill="none" stroke="gray" d="M690,655.5L699,655.5"></path></g><path id="node_outline21" fill="none" stroke="none" d="M705.5,644.5h70a5,5,0,0,1,5,5v12a5,5,0,0,1,-5,5h-70a5,5,0,0,1,-5,-5v-12a5,5,0,0,1,5,-5z"></path><g id="node_text21" fill="black"><text id="kity_text_177" text-rendering="inherit" font-size="12" dy=".8em" y="649.5" x="710.5">平衡二叉树</text></g></g><g id="minder_node22"><g id="node_expander19" style="cursor: pointer;" display="none"><path id="kity_path_355" fill="white" stroke="gray" d="M820.5,655.5A6,6,0,1,1,808.5,655.5A6,6,0,1,1,820.5,655.5"></path><path id="kity_path_356" fill="none" stroke="gray"></path></g><path id="node_outline20" fill="none" stroke="none" d="M825.5,644.5h296a5,5,0,0,1,5,5v12a5,5,0,0,1,-5,5h-296a5,5,0,0,1,-5,-5v-12a5,5,0,0,1,5,-5z"></path><g id="node_text20" fill="black"><text id="kity_text_175" text-rendering="inherit" font-size="12" dy=".8em" y="649.5" x="830.5">左右子树的高度差不超过1,且左右子树都为平衡二叉树 </text></g></g><g id="minder_node23"><g id="node_expander22" style="cursor: pointer;"><path id="kity_path_364" fill="white" stroke="gray" d="M700.5,707.5A6,6,0,1,1,688.5,707.5A6,6,0,1,1,700.5,707.5"></path><path id="kity_path_365" fill="none" stroke="gray" d="M690,707.5L699,707.5"></path></g><path id="node_outline23" fill="none" stroke="none" d="M705.5,696.5h58a5,5,0,0,1,5,5v12a5,5,0,0,1,-5,5h-58a5,5,0,0,1,-5,-5v-12a5,5,0,0,1,5,-5z"></path><g id="node_text23" fill="black"><text id="kity_text_181" text-rendering="inherit" font-size="12" dy=".8em" y="701.5" x="710.5">满二叉树</text></g></g><g id="minder_node24"><g id="node_expander21" style="cursor: pointer;" display="none"><path id="kity_path_361" fill="white" stroke="gray" d="M808.5,707.5A6,6,0,1,1,796.5,707.5A6,6,0,1,1,808.5,707.5"></path><path id="kity_path_362" fill="none" stroke="gray"></path></g><path id="node_outline22" fill="none" stroke="none" d="M813.5,696.5h223a5,5,0,0,1,5,5v12a5,5,0,0,1,-5,5h-223a5,5,0,0,1,-5,-5v-12a5,5,0,0,1,5,-5z"></path><g id="node_text22" fill="black"><text id="kity_text_179" text-rendering="inherit" font-size="12" dy=".8em" y="701.5" x="818.5">根节点算第0层，那么第k层有2^k个节点</text></g></g><g id="minder_node25"><g id="node_expander24" style="cursor: pointer;"><path id="kity_path_370" fill="white" stroke="gray" d="M700.5,759.5A6,6,0,1,1,688.5,759.5A6,6,0,1,1,700.5,759.5"></path><path id="kity_path_371" fill="none" stroke="gray" d="M690,759.5L699,759.5"></path></g><path id="node_outline25" fill="none" stroke="none" d="M705.5,748.5h70a5,5,0,0,1,5,5v12a5,5,0,0,1,-5,5h-70a5,5,0,0,1,-5,-5v-12a5,5,0,0,1,5,-5z"></path><g id="node_text25" fill="black"><text id="kity_text_185" text-rendering="inherit" font-size="12" dy=".8em" y="753.5" x="710.5">二叉排序树</text></g></g><g id="minder_node26"><g id="node_expander23" style="cursor: pointer;" display="none"><path id="kity_path_367" fill="white" stroke="gray" d="M820.5,759.5A6,6,0,1,1,808.5,759.5A6,6,0,1,1,820.5,759.5"></path><path id="kity_path_368" fill="none" stroke="gray"></path></g><path id="node_outline24" fill="none" stroke="none" d="M825.5,748.5h130a5,5,0,0,1,5,5v12a5,5,0,0,1,-5,5h-130a5,5,0,0,1,-5,-5v-12a5,5,0,0,1,5,-5z"></path><g id="node_text24" fill="black"><text id="kity_text_183" text-rendering="inherit" font-size="12" dy=".8em" y="753.5" x="830.5">中序遍历得到有序节点</text></g></g><g id="minder_node27"><g id="node_expander26" style="cursor: pointer;" display="none"><path id="kity_path_376" fill="white" stroke="gray" d="M710.5,915.5A6,6,0,1,1,698.5,915.5A6,6,0,1,1,710.5,915.5"></path><path id="kity_path_377" fill="none" stroke="gray"></path></g><path id="node_outline27" fill="rgb(238, 243, 246)" stroke="rgb(115, 161, 191)" d="M714.5,902.5h48a3,3,0,0,1,3,3v20a3,3,0,0,1,-3,3h-48a3,3,0,0,1,-3,-3v-20a3,3,0,0,1,3,-3z" stroke-width="1"></path><g id="node_text27" fill="black"><text id="kity_text_189" text-rendering="inherit" font-size="14" dy=".8em" y="908.5" x="731.5">图</text></g></g><g id="minder_node28"><g id="node_expander49" style="cursor: pointer;"><path id="kity_path_445" fill="white" stroke="gray" d="M786.5,1289.5A6,6,0,1,1,774.5,1289.5A6,6,0,1,1,786.5,1289.5"></path><path id="kity_path_446" fill="none" stroke="gray" d="M776,1289.5L785,1289.5"></path></g><path id="node_outline50" fill="rgb(238, 243, 246)" stroke="rgb(115, 161, 191)" d="M790.5,1276.5h76a3,3,0,0,1,3,3v20a3,3,0,0,1,-3,3h-76a3,3,0,0,1,-3,-3v-20a3,3,0,0,1,3,-3z" stroke-width="1"></path><g id="node_text50" fill="black"><text id="kity_text_235" text-rendering="inherit" font-size="14" dy=".8em" y="1282.5" x="807.5">线性表</text></g></g><g id="minder_node29"><g id="node_expander30" style="cursor: pointer;"><path id="kity_path_388" fill="white" stroke="gray" d="M909.5,958.5A6,6,0,1,1,897.5,958.5A6,6,0,1,1,909.5,958.5"></path><path id="kity_path_389" fill="none" stroke="gray" d="M899,958.5L908,958.5"></path></g><path id="node_outline31" fill="none" stroke="none" d="M914.5,947.5h34a5,5,0,0,1,5,5v12a5,5,0,0,1,-5,5h-34a5,5,0,0,1,-5,-5v-12a5,5,0,0,1,5,-5z"></path><g id="node_text31" fill="black"><text id="kity_text_197" text-rendering="inherit" font-size="12" dy=".8em" y="952.5" x="919.5">数组</text></g></g><g id="minder_node30"><g id="node_expander27" style="cursor: pointer;" display="none"><path id="kity_path_379" fill="white" stroke="gray" d="M993.5,906.5A6,6,0,1,1,981.5,906.5A6,6,0,1,1,993.5,906.5"></path><path id="kity_path_380" fill="none" stroke="gray"></path></g><path id="node_outline28" fill="none" stroke="none" d="M998.5,895.5h85a5,5,0,0,1,5,5v12a5,5,0,0,1,-5,5h-85a5,5,0,0,1,-5,-5v-12a5,5,0,0,1,5,-5z"></path><g id="node_text28" fill="black"><text id="kity_text_191" text-rendering="inherit" font-size="12" dy=".8em" y="900.5" x="1003.5">插入删除O(n)</text></g></g><g id="minder_node31"><g id="node_expander28" style="cursor: pointer;" display="none"><path id="kity_path_382" fill="white" stroke="gray" d="M993.5,958.5A6,6,0,1,1,981.5,958.5A6,6,0,1,1,993.5,958.5"></path><path id="kity_path_383" fill="none" stroke="gray"></path></g><path id="node_outline29" fill="none" stroke="none" d="M998.5,947.5h84a5,5,0,0,1,5,5v12a5,5,0,0,1,-5,5h-84a5,5,0,0,1,-5,-5v-12a5,5,0,0,1,5,-5z"></path><g id="node_text29" fill="black"><text id="kity_text_193" text-rendering="inherit" font-size="12" dy=".8em" y="952.5" x="1003.5">访问元素O(1)</text></g></g><g id="minder_node32"><g id="node_expander29" style="cursor: pointer;" display="none"><path id="kity_path_385" fill="white" stroke="gray" d="M993.5,1010.5A6,6,0,1,1,981.5,1010.5A6,6,0,1,1,993.5,1010.5"></path><path id="kity_path_386" fill="none" stroke="gray"></path></g><path id="node_outline30" fill="none" stroke="none" d="M998.5,999.5h106a5,5,0,0,1,5,5v12a5,5,0,0,1,-5,5h-106a5,5,0,0,1,-5,-5v-12a5,5,0,0,1,5,-5z"></path><g id="node_text30" fill="black"><text id="kity_text_195" text-rendering="inherit" font-size="12" dy=".8em" y="1004.5" x="1003.5">需要捕获越界异常</text></g></g><g id="minder_node33"><g id="node_expander34" style="cursor: pointer;"><path id="kity_path_400" fill="white" stroke="gray" d="M909.5,1114.5A6,6,0,1,1,897.5,1114.5A6,6,0,1,1,909.5,1114.5"></path><path id="kity_path_401" fill="none" stroke="gray" d="M899,1114.5L908,1114.5"></path></g><path id="node_outline35" fill="none" stroke="none" d="M914.5,1103.5h34a5,5,0,0,1,5,5v12a5,5,0,0,1,-5,5h-34a5,5,0,0,1,-5,-5v-12a5,5,0,0,1,5,-5z"></path><g id="node_text35" fill="black"><text id="kity_text_205" text-rendering="inherit" font-size="12" dy=".8em" y="1108.5" x="919.5">链表</text></g></g><g id="minder_node34"><g id="node_expander31" style="cursor: pointer;" display="none"><path id="kity_path_391" fill="white" stroke="gray" d="M993.5,1062.5A6,6,0,1,1,981.5,1062.5A6,6,0,1,1,993.5,1062.5"></path><path id="kity_path_392" fill="none" stroke="gray"></path></g><path id="node_outline32" fill="none" stroke="none" d="M998.5,1051.5h58a5,5,0,0,1,5,5v12a5,5,0,0,1,-5,5h-58a5,5,0,0,1,-5,-5v-12a5,5,0,0,1,5,-5z"></path><g id="node_text32" fill="black"><text id="kity_text_199" text-rendering="inherit" font-size="12" dy=".8em" y="1056.5" x="1003.5">双向链表</text></g></g><g id="minder_node35"><g id="node_expander32" style="cursor: pointer;" display="none"><path id="kity_path_394" fill="white" stroke="gray" d="M993.5,1114.5A6,6,0,1,1,981.5,1114.5A6,6,0,1,1,993.5,1114.5"></path><path id="kity_path_395" fill="none" stroke="gray"></path></g><path id="node_outline33" fill="none" stroke="none" d="M998.5,1103.5h58a5,5,0,0,1,5,5v12a5,5,0,0,1,-5,5h-58a5,5,0,0,1,-5,-5v-12a5,5,0,0,1,5,-5z"></path><g id="node_text33" fill="black"><text id="kity_text_201" text-rendering="inherit" font-size="12" dy=".8em" y="1108.5" x="1003.5">单向链表</text></g></g><g id="minder_node36"><g id="node_expander33" style="cursor: pointer;" display="none"><path id="kity_path_397" fill="white" stroke="gray" d="M993.5,1166.5A6,6,0,1,1,981.5,1166.5A6,6,0,1,1,993.5,1166.5"></path><path id="kity_path_398" fill="none" stroke="gray"></path></g><path id="node_outline34" fill="none" stroke="none" d="M998.5,1155.5h58a5,5,0,0,1,5,5v12a5,5,0,0,1,-5,5h-58a5,5,0,0,1,-5,-5v-12a5,5,0,0,1,5,-5z"></path><g id="node_text34" fill="black"><text id="kity_text_203" text-rendering="inherit" font-size="12" dy=".8em" y="1160.5" x="1003.5">循环链表</text></g></g><g id="minder_node37"><g id="node_expander37" style="cursor: pointer;"><path id="kity_path_409" fill="white" stroke="gray" d="M909.5,1244.5A6,6,0,1,1,897.5,1244.5A6,6,0,1,1,909.5,1244.5"></path><path id="kity_path_410" fill="none" stroke="gray" d="M899,1244.5L908,1244.5"></path></g><path id="node_outline38" fill="none" stroke="none" d="M914.5,1233.5h22a5,5,0,0,1,5,5v12a5,5,0,0,1,-5,5h-22a5,5,0,0,1,-5,-5v-12a5,5,0,0,1,5,-5z"></path><g id="node_text38" fill="black"><text id="kity_text_211" text-rendering="inherit" font-size="12" dy=".8em" y="1238.5" x="919.5">栈</text></g></g><g id="minder_node38"><g id="node_expander35" style="cursor: pointer;" display="none"><path id="kity_path_403" fill="white" stroke="gray" d="M981.5,1218.5A6,6,0,1,1,969.5,1218.5A6,6,0,1,1,981.5,1218.5"></path><path id="kity_path_404" fill="none" stroke="gray"></path></g><path id="node_outline36" fill="none" stroke="none" d="M986.5,1207.5h58a5,5,0,0,1,5,5v12a5,5,0,0,1,-5,5h-58a5,5,0,0,1,-5,-5v-12a5,5,0,0,1,5,-5z"></path><g id="node_text36" fill="black"><text id="kity_text_207" text-rendering="inherit" font-size="12" dy=".8em" y="1212.5" x="991.5">先进后出</text></g></g><g id="minder_node39"><g id="node_expander36" style="cursor: pointer;" display="none"><path id="kity_path_406" fill="white" stroke="gray" d="M981.5,1270.5A6,6,0,1,1,969.5,1270.5A6,6,0,1,1,981.5,1270.5"></path><path id="kity_path_407" fill="none" stroke="gray"></path></g><path id="node_outline37" fill="none" stroke="none" d="M986.5,1259.5h130a5,5,0,0,1,5,5v12a5,5,0,0,1,-5,5h-130a5,5,0,0,1,-5,-5v-12a5,5,0,0,1,5,-5z"></path><g id="node_text37" fill="black"><text id="kity_text_209" text-rendering="inherit" font-size="12" dy=".8em" y="1264.5" x="991.5">数组和链表都可以实现</text></g></g><g id="minder_node40"><g id="node_expander41" style="cursor: pointer;"><path id="kity_path_421" fill="white" stroke="gray" d="M909.5,1374.5A6,6,0,1,1,897.5,1374.5A6,6,0,1,1,909.5,1374.5"></path><path id="kity_path_422" fill="none" stroke="gray" d="M899,1374.5L908,1374.5"></path></g><path id="node_outline42" fill="none" stroke="none" d="M914.5,1363.5h34a5,5,0,0,1,5,5v12a5,5,0,0,1,-5,5h-34a5,5,0,0,1,-5,-5v-12a5,5,0,0,1,5,-5z"></path><g id="node_text42" fill="black"><text id="kity_text_219" text-rendering="inherit" font-size="12" dy=".8em" y="1368.5" x="919.5">队列</text></g></g><g id="minder_node41"><g id="node_expander38" style="cursor: pointer;" display="none"><path id="kity_path_412" fill="white" stroke="gray" d="M993.5,1322.5A6,6,0,1,1,981.5,1322.5A6,6,0,1,1,993.5,1322.5"></path><path id="kity_path_413" fill="none" stroke="gray"></path></g><path id="node_outline39" fill="none" stroke="none" d="M998.5,1311.5h58a5,5,0,0,1,5,5v12a5,5,0,0,1,-5,5h-58a5,5,0,0,1,-5,-5v-12a5,5,0,0,1,5,-5z"></path><g id="node_text39" fill="black"><text id="kity_text_213" text-rendering="inherit" font-size="12" dy=".8em" y="1316.5" x="1003.5">单向队列</text></g></g><g id="minder_node42"><g id="node_expander39" style="cursor: pointer;" display="none"><path id="kity_path_415" fill="white" stroke="gray" d="M993.5,1374.5A6,6,0,1,1,981.5,1374.5A6,6,0,1,1,993.5,1374.5"></path><path id="kity_path_416" fill="none" stroke="gray"></path></g><path id="node_outline40" fill="none" stroke="none" d="M998.5,1363.5h58a5,5,0,0,1,5,5v12a5,5,0,0,1,-5,5h-58a5,5,0,0,1,-5,-5v-12a5,5,0,0,1,5,-5z"></path><g id="node_text40" fill="black"><text id="kity_text_215" text-rendering="inherit" font-size="12" dy=".8em" y="1368.5" x="1003.5">双端队列</text></g></g><g id="minder_node43"><g id="node_expander40" style="cursor: pointer;" display="none"><path id="kity_path_418" fill="white" stroke="gray" d="M993.5,1426.5A6,6,0,1,1,981.5,1426.5A6,6,0,1,1,993.5,1426.5"></path><path id="kity_path_419" fill="none" stroke="gray"></path></g><path id="node_outline41" fill="none" stroke="none" d="M998.5,1415.5h100a5,5,0,0,1,5,5v12a5,5,0,0,1,-5,5h-100a5,5,0,0,1,-5,-5v-12a5,5,0,0,1,5,-5z"></path><g id="node_text41" fill="black"><text id="kity_text_217" text-rendering="inherit" font-size="12" dy=".8em" y="1420.5" x="1003.5">优先级队列(LRU)</text></g></g><g id="minder_node44"><g id="node_expander48" style="cursor: pointer;"><path id="kity_path_442" fill="white" stroke="gray" d="M909.5,1621.5A6,6,0,1,1,897.5,1621.5A6,6,0,1,1,909.5,1621.5"></path><path id="kity_path_443" fill="none" stroke="gray" d="M899,1621.5L908,1621.5"></path></g><path id="node_outline49" fill="none" stroke="none" d="M914.5,1610.5h22a5,5,0,0,1,5,5v12a5,5,0,0,1,-5,5h-22a5,5,0,0,1,-5,-5v-12a5,5,0,0,1,5,-5z"></path><g id="node_text49" fill="black"><text id="kity_text_233" text-rendering="inherit" font-size="12" dy=".8em" y="1615.5" x="919.5">堆</text></g></g><g id="minder_node45"><g id="node_expander46" style="cursor: pointer;"><path id="kity_path_436" fill="white" stroke="gray" d="M981.5,1556.5A6,6,0,1,1,969.5,1556.5A6,6,0,1,1,981.5,1556.5"></path><path id="kity_path_437" fill="none" stroke="gray" d="M971,1556.5L980,1556.5"></path></g><path id="node_outline47" fill="none" stroke="none" d="M986.5,1545.5h46a5,5,0,0,1,5,5v12a5,5,0,0,1,-5,5h-46a5,5,0,0,1,-5,-5v-12a5,5,0,0,1,5,-5z"></path><g id="node_text47" fill="black"><text id="kity_text_229" text-rendering="inherit" font-size="12" dy=".8em" y="1550.5" x="991.5">大顶堆</text></g></g><g id="minder_node46"><g id="node_expander42" style="cursor: pointer;" display="none"><path id="kity_path_424" fill="white" stroke="gray" d="M1077.5,1478.5A6,6,0,1,1,1065.5,1478.5A6,6,0,1,1,1077.5,1478.5"></path><path id="kity_path_425" fill="none" stroke="gray"></path></g><path id="node_outline43" fill="none" stroke="none" d="M1082.5,1467.5h133a5,5,0,0,1,5,5v12a5,5,0,0,1,-5,5h-133a5,5,0,0,1,-5,-5v-12a5,5,0,0,1,5,-5z"></path><g id="node_text43" fill="black"><text id="kity_text_221" text-rendering="inherit" font-size="12" dy=".8em" y="1472.5" x="1087.5">构建时间复杂度为O(n)</text></g></g><g id="minder_node47"><g id="node_expander43" style="cursor: pointer;" display="none"><path id="kity_path_427" fill="white" stroke="gray" d="M1077.5,1530.5A6,6,0,1,1,1065.5,1530.5A6,6,0,1,1,1077.5,1530.5"></path><path id="kity_path_428" fill="none" stroke="gray"></path></g><path id="node_outline44" fill="none" stroke="none" d="M1082.5,1519.5h168a5,5,0,0,1,5,5v12a5,5,0,0,1,-5,5h-168a5,5,0,0,1,-5,-5v-12a5,5,0,0,1,5,-5z"></path><g id="node_text44" fill="black"><text id="kity_text_223" text-rendering="inherit" font-size="12" dy=".8em" y="1524.5" x="1087.5">排序时间复杂度为0(n*log(n))</text></g></g><g id="minder_node48"><g id="node_expander44" style="cursor: pointer;" display="none"><path id="kity_path_430" fill="white" stroke="gray" d="M1077.5,1582.5A6,6,0,1,1,1065.5,1582.5A6,6,0,1,1,1077.5,1582.5"></path><path id="kity_path_431" fill="none" stroke="gray"></path></g><path id="node_outline45" fill="none" stroke="none" d="M1082.5,1571.5h108a5,5,0,0,1,5,5v12a5,5,0,0,1,-5,5h-108a5,5,0,0,1,-5,-5v-12a5,5,0,0,1,5,-5z"></path><g id="node_text45" fill="black"><text id="kity_text_225" text-rendering="inherit" font-size="12" dy=".8em" y="1576.5" x="1087.5">空间复杂度为O(1)</text></g></g><g id="minder_node49"><g id="node_expander45" style="cursor: pointer;" display="none"><path id="kity_path_433" fill="white" stroke="gray" d="M1077.5,1634.5A6,6,0,1,1,1065.5,1634.5A6,6,0,1,1,1077.5,1634.5"></path><path id="kity_path_434" fill="none" stroke="gray"></path></g><path id="node_outline46" fill="none" stroke="none" d="M1082.5,1623.5h213a5,5,0,0,1,5,5v12a5,5,0,0,1,-5,5h-213a5,5,0,0,1,-5,-5v-12a5,5,0,0,1,5,-5z"></path><g id="node_text46" fill="black"><text id="kity_text_227" text-rendering="inherit" font-size="12" dy=".8em" y="1628.5" x="1087.5">插入后重调大顶堆时间复杂度为log(n)</text></g></g><g id="minder_node50"><g id="node_expander47" style="cursor: pointer;" display="none"><path id="kity_path_439" fill="white" stroke="gray" d="M981.5,1686.5A6,6,0,1,1,969.5,1686.5A6,6,0,1,1,981.5,1686.5"></path><path id="kity_path_440" fill="none" stroke="gray"></path></g><path id="node_outline48" fill="none" stroke="none" d="M986.5,1675.5h46a5,5,0,0,1,5,5v12a5,5,0,0,1,-5,5h-46a5,5,0,0,1,-5,-5v-12a5,5,0,0,1,5,-5z"></path><g id="node_text48" fill="black"><text id="kity_text_231" text-rendering="inherit" font-size="12" dy=".8em" y="1680.5" x="991.5">小顶堆</text></g></g><g id="minder_node51"><g id="node_expander54" style="cursor: pointer;"><path id="kity_path_460" fill="white" stroke="gray" d="M372.5,859.5A6,6,0,1,1,360.5,859.5A6,6,0,1,1,372.5,859.5"></path><path id="kity_path_461" fill="none" stroke="gray" d="M362,859.5L371,859.5"></path></g><path id="node_outline55" fill="rgb(238, 243, 246)" stroke="rgb(115, 161, 191)" d="M280.5,846.5h76a3,3,0,0,1,3,3v20a3,3,0,0,1,-3,3h-76a3,3,0,0,1,-3,-3v-20a3,3,0,0,1,3,-3z" stroke-width="1"></path><g id="node_text55" fill="black"><text id="kity_text_245" text-rendering="inherit" font-size="14" dy=".8em" y="852.5" x="297.5">哈希表</text></g></g><g id="minder_node52"><g id="node_expander52" style="cursor: pointer;"><path id="kity_path_454" fill="white" stroke="gray" d="M249.5,820.5A6,6,0,1,1,237.5,820.5A6,6,0,1,1,249.5,820.5"></path><path id="kity_path_455" fill="none" stroke="gray" d="M239,820.5L248,820.5"></path></g><path id="node_outline53" fill="none" stroke="none" d="M150.5,809.5h82a5,5,0,0,1,5,5v12a5,5,0,0,1,-5,5h-82a5,5,0,0,1,-5,-5v-12a5,5,0,0,1,5,-5z"></path><g id="node_text53" fill="black"><text id="kity_text_241" text-rendering="inherit" font-size="12" dy=".8em" y="814.5" x="155.5">哈希冲突解决</text></g></g><g id="minder_node53"><g id="node_expander50" style="cursor: pointer;" display="none"><path id="kity_path_448" fill="white" stroke="gray" d="M117.5,794.5A6,6,0,1,1,105.5,794.5A6,6,0,1,1,117.5,794.5"></path><path id="kity_path_449" fill="none" stroke="gray"></path></g><path id="node_outline51" fill="none" stroke="none" d="M54.5,783.5h46a5,5,0,0,1,5,5v12a5,5,0,0,1,-5,5h-46a5,5,0,0,1,-5,-5v-12a5,5,0,0,1,5,-5z"></path><g id="node_text51" fill="black"><text id="kity_text_237" text-rendering="inherit" font-size="12" dy=".8em" y="788.5" x="59.5">拉链法</text></g></g><g id="minder_node54"><g id="node_expander51" style="cursor: pointer;" display="none"><path id="kity_path_451" fill="white" stroke="gray" d="M117.5,846.5A6,6,0,1,1,105.5,846.5A6,6,0,1,1,117.5,846.5"></path><path id="kity_path_452" fill="none" stroke="gray"></path></g><path id="node_outline52" fill="none" stroke="none" d="M30.5,835.5h70a5,5,0,0,1,5,5v12a5,5,0,0,1,-5,5h-70a5,5,0,0,1,-5,-5v-12a5,5,0,0,1,5,-5z"></path><g id="node_text52" fill="black"><text id="kity_text_239" text-rendering="inherit" font-size="12" dy=".8em" y="840.5" x="35.5">开放地址法</text></g></g><g id="minder_node55"><g id="node_expander53" style="cursor: pointer;" display="none"><path id="kity_path_457" fill="white" stroke="gray" d="M249.5,898.5A6,6,0,1,1,237.5,898.5A6,6,0,1,1,249.5,898.5"></path><path id="kity_path_458" fill="none" stroke="gray"></path></g><path id="node_outline54" fill="none" stroke="none" d="M126.5,887.5h106a5,5,0,0,1,5,5v12a5,5,0,0,1,-5,5h-106a5,5,0,0,1,-5,-5v-12a5,5,0,0,1,5,-5z"></path><g id="node_text54" fill="black"><text id="kity_text_243" text-rendering="inherit" font-size="12" dy=".8em" y="892.5" x="131.5">构造：除留余数法</text></g></g><g id="minder_node56"><g id="node_expander55" style="cursor: pointer;"><path id="kity_path_468" fill="white" stroke="gray" d="M372.5,986.5A6,6,0,1,1,360.5,986.5A6,6,0,1,1,372.5,986.5"></path><path id="kity_path_469" fill="none" stroke="gray" d="M362,986.5L371,986.5"></path></g><path id="node_outline56" fill="rgb(238, 243, 246)" stroke="rgb(115, 161, 191)" d="M273.5,973.5h83a3,3,0,0,1,3,3v20a3,3,0,0,1,-3,3h-83a3,3,0,0,1,-3,-3v-20a3,3,0,0,1,3,-3z" stroke-width="1"></path><g id="node_text56" fill="black"><text id="kity_text_465" text-rendering="inherit" font-size="14" dy=".8em" y="979.5" x="290.5">集合Set</text></g></g><g id="minder_node57"><g id="node_expander56" style="cursor: pointer;"><path id="kity_path_476" fill="white" stroke="gray" d="M372.5,1076.5A6,6,0,1,1,360.5,1076.5A6,6,0,1,1,372.5,1076.5"></path><path id="kity_path_477" fill="none" stroke="gray" d="M362,1076.5L371,1076.5"></path></g><path id="node_outline57" fill="rgb(238, 243, 246)" stroke="rgb(115, 161, 191)" d="M262.5,1063.5h94a3,3,0,0,1,3,3v20a3,3,0,0,1,-3,3h-94a3,3,0,0,1,-3,-3v-20a3,3,0,0,1,3,-3z" stroke-width="1"></path><g id="node_text57" fill="black"><text id="kity_text_473" text-rendering="inherit" font-size="14" dy=".8em" y="1069.5" x="279.5">字典Map</text></g></g><g id="minder_node58"><g id="node_expander57" style="cursor: pointer;"><path id="kity_path_484" fill="white" stroke="gray" d="M242.5,960.5A6,6,0,1,1,230.5,960.5A6,6,0,1,1,242.5,960.5"></path><path id="kity_path_485" fill="none" stroke="gray" d="M232,960.5L241,960.5"></path></g><path id="node_outline58" fill="none" stroke="none" d="M169.5,949.5h56a5,5,0,0,1,5,5v12a5,5,0,0,1,-5,5h-56a5,5,0,0,1,-5,-5v-12a5,5,0,0,1,5,-5z" stroke-width="3"></path><g id="node_text58" fill="black"><text id="kity_text_481" text-rendering="inherit" font-size="12" dy=".8em" y="954.5" x="174.5">HashSet</text></g></g><g id="minder_node59" opacity="1"><g id="node_expander58" style="cursor: pointer;" display="none"><path id="kity_path_492" fill="white" stroke="gray" d="M136.5,960.5A6,6,0,1,1,124.5,960.5A6,6,0,1,1,136.5,960.5"></path><path id="kity_path_493" fill="none" stroke="gray"></path></g><path id="node_outline59" fill="none" stroke="none" d="M25.5,949.5h94a5,5,0,0,1,5,5v12a5,5,0,0,1,-5,5h-94a5,5,0,0,1,-5,-5v-12a5,5,0,0,1,5,-5z" stroke-width="3"></path><g id="node_text59" fill="black"><text id="kity_text_489" text-rendering="inherit" font-size="12" dy=".8em" y="954.5" x="30.5">LinkedHashSet</text></g></g><g id="minder_node60"><g id="node_expander59" style="cursor: pointer;" display="none"><path id="kity_path_500" fill="white" stroke="gray" d="M242.5,1012.5A6,6,0,1,1,230.5,1012.5A6,6,0,1,1,242.5,1012.5"></path><path id="kity_path_501" fill="none" stroke="gray"></path></g><path id="node_outline60" fill="none" stroke="none" d="M173.5,1001.5h52a5,5,0,0,1,5,5v12a5,5,0,0,1,-5,5h-52a5,5,0,0,1,-5,-5v-12a5,5,0,0,1,5,-5z" stroke-width="3"></path><g id="node_text60" fill="black"><text id="kity_text_497" text-rendering="inherit" font-size="12" dy=".8em" y="1006.5" x="178.5">TreeSet</text></g></g><g id="kity_g_12" display="none"><path id="kity_path_13" fill="none" stroke="rgb(66, 94, 112)" d="M169.5,923.5h56a5,5,0,0,1,5,5v12a5,5,0,0,1,-5,5h-56a5,5,0,0,1,-5,-5v-12a5,5,0,0,1,5,-5z" stroke-width="5"></path></g><g id="minder_node61"><g id="node_expander60" style="cursor: pointer;" display="none"><path id="kity_path_508" fill="white" stroke="gray" d="M231.5,1076.5A6,6,0,1,1,219.5,1076.5A6,6,0,1,1,231.5,1076.5"></path><path id="kity_path_509" fill="none" stroke="gray"></path></g><path id="node_outline61" fill="none" stroke="none" d="M148.5,1065.5h66a5,5,0,0,1,5,5v12a5,5,0,0,1,-5,5h-66a5,5,0,0,1,-5,-5v-12a5,5,0,0,1,5,-5z" stroke-width="3"></path><g id="node_text61" fill="black"><text id="kity_text_505" text-rendering="inherit" font-size="12" dy=".8em" y="1070.5" x="153.5">HashMap</text></g></g></g></g></svg>