<svg id="kity_svg_6" xmlns="http://www.w3.org/2000/svg" xmlns:xlink="http://www.w3.org/1999/xlink" version="1.1" width="838" height="581" style="background: rgb(251, 251, 251); visibility: visible;" viewBox="0 0 838 581"><defs id="kity_defs_7"><linearGradient id="kity_linearGradient_17" x1="0" y1="0" x2="0" y2="1"><stop id="kity_stop_18" offset="0" stop-color="rgb(255, 255, 255)"></stop><stop id="kity_stop_19" offset="1" stop-color="rgb(204, 204, 204)"></stop></linearGradient><marker id="kity_marker_2" orient="auto" refX="6" refY="0" viewBox="-7 -7 14 14" markerWidth="7" markerHeight="7" markerUnits="userSpaceOnUse"><path id="kity_path_3" fill="rgb(115, 161, 191)" stroke="none" d="M6,0A6,6,0,1,1,-6,0A6,6,0,1,1,6,0"></path></marker></defs><g id="kity_g_8"><g id="minder1" text-rendering="optimize-speed"><g id="minder_connect_group1"><path id="kity_path_31" fill="none" stroke="rgb(115, 161, 191)" stroke-width="1" d="M458.5,371.5A111,184,0,0,1,569.5,187.5"></path><path id="kity_path_33" fill="none" stroke="rgb(115, 161, 191)" stroke-width="1" d="M639.5,187.5C654.5,187.5,654.5,45.5,669.5,45.5L747.5,45.5"></path><path id="kity_path_35" fill="none" stroke="rgb(115, 161, 191)" stroke-width="1" d="M639.5,187.5C654.5,187.5,654.5,97.5,669.5,97.5L747.5,97.5"></path><path id="kity_path_37" fill="none" stroke="rgb(115, 161, 191)" stroke-width="1" d="M639.5,187.5C654.5,187.5,654.5,149.5,669.5,149.5L747.5,149.5"></path><path id="kity_path_39" fill="none" stroke="rgb(115, 161, 191)" stroke-width="1" d="M639.5,187.5C654.5,187.5,654.5,201.5,669.5,201.5L735.5,201.5"></path><path id="kity_path_41" fill="none" stroke="rgb(115, 161, 191)" stroke-width="1" d="M639.5,187.5C654.5,187.5,654.5,253.5,669.5,253.5L747.5,253.5"></path><path id="kity_path_43" fill="none" stroke="rgb(115, 161, 191)" stroke-width="1" d="M639.5,187.5C654.5,187.5,654.5,305.5,669.5,305.5L747.5,305.5"></path><path id="kity_path_45" fill="none" stroke="rgb(115, 161, 191)" stroke-width="1" d="M639.5,187.5C654.5,187.5,654.5,357.5,669.5,357.5L747.5,357.5"></path><path id="kity_path_47" fill="none" stroke="rgb(115, 161, 191)" stroke-width="1" d="M458.5,371.5A184,46,0,0,0,642.5,417.5"></path><path id="kity_path_49" fill="none" stroke="rgb(115, 161, 191)" stroke-width="1" d="M458.5,371.5A158,110,0,0,0,616.5,481.5"></path><path id="kity_path_51" fill="none" stroke="rgb(115, 161, 191)" stroke-width="1" d="M458.5,371.5A158,176,0,0,0,616.5,547.5"></path><path id="kity_path_53" fill="none" stroke="rgb(115, 161, 191)" stroke-width="1" d="M686.5,547.5C701.5,547.5,701.5,561.5,716.5,561.5L818.5,561.5"></path><path id="kity_path_55" fill="none" stroke="rgb(115, 161, 191)" stroke-width="1" d="M458.5,371.5A158,90,0,0,0,300.5,281.5"></path><path id="kity_path_57" fill="none" stroke="rgb(115, 161, 191)" stroke-width="1" d="M458.5,371.5A158,0,0,0,1,300.5,371.5"></path><path id="kity_path_59" fill="none" stroke="rgb(115, 161, 191)" stroke-width="1" d="M234.5,371.5C219.5,371.5,219.5,359.5,204.5,359.5L78.5,359.5"></path><path id="kity_path_61" fill="none" stroke="rgb(115, 161, 191)" stroke-width="1" d="M234.5,371.5C219.5,371.5,219.5,411.5,204.5,411.5L20.5,411.5"></path><path id="kity_path_63" fill="none" stroke="rgb(115, 161, 191)" stroke-width="1" d="M458.5,371.5A158,90,0,0,1,300.5,461.5"></path></g><g id="minder_node1"><path id="node_outline1" fill="rgb(115, 161, 191)" stroke="rgb(57, 80, 96)" d="M423.5,351.5h70a5,5,0,0,1,5,5v30a5,5,0,0,1,-5,5h-70a5,5,0,0,1,-5,-5v-30a5,5,0,0,1,5,-5z" stroke-width="3"></path><g id="node_text1" fill="white"><text id="kity_text_22" text-rendering="inherit" font-size="16" dy=".8em" y="363.5" x="442.5">算法</text></g></g><g id="kity_g_12"><path id="kity_path_13" fill="none" stroke="none" d="M442.5,371.5h0v0h0z"></path></g><g id="kity_g_14"><path id="kity_path_15" fill="none" stroke="none" d="M442.5,371.5h0v0h0z"></path><path id="kity_path_16" fill="none" stroke="none"></path></g><g id="minder_node2"><g id="node_expander8" style="cursor: pointer;"><path id="kity_path_137" fill="white" stroke="gray" d="M570.5,187.5A6,6,0,1,1,558.5,187.5A6,6,0,1,1,570.5,187.5"></path><path id="kity_path_138" fill="none" stroke="gray" d="M560,187.5L569,187.5"></path></g><path id="node_outline9" fill="rgb(238, 243, 246)" stroke="rgb(115, 161, 191)" d="M574.5,174.5h62a3,3,0,0,1,3,3v20a3,3,0,0,1,-3,3h-62a3,3,0,0,1,-3,-3v-20a3,3,0,0,1,3,-3z" stroke-width="1"></path><g id="node_text9" fill="black"><text id="kity_text_79" text-rendering="inherit" font-size="14" dy=".8em" y="180.5" x="591.5">排序</text></g></g><g id="minder_node3"><g id="node_expander1" display="none" style="cursor: pointer;"><path id="kity_path_116" fill="white" stroke="gray" d="M679.5,31.5A6,6,0,1,1,667.5,31.5A6,6,0,1,1,679.5,31.5"></path><path id="kity_path_117" fill="none" stroke="gray"></path></g><path id="node_outline2" fill="none" stroke="none" d="M684.5,20.5h58a5,5,0,0,1,5,5v12a5,5,0,0,1,-5,5h-58a5,5,0,0,1,-5,-5v-12a5,5,0,0,1,5,-5z"></path><g id="node_text2" fill="black"><text id="kity_text_65" text-rendering="inherit" font-size="12" dy=".8em" y="25.5" x="689.5">归并排序</text></g></g><g id="minder_node4"><g id="node_expander2" display="none" style="cursor: pointer;"><path id="kity_path_119" fill="white" stroke="gray" d="M679.5,83.5A6,6,0,1,1,667.5,83.5A6,6,0,1,1,679.5,83.5"></path><path id="kity_path_120" fill="none" stroke="gray"></path></g><path id="node_outline3" fill="none" stroke="none" d="M684.5,72.5h58a5,5,0,0,1,5,5v12a5,5,0,0,1,-5,5h-58a5,5,0,0,1,-5,-5v-12a5,5,0,0,1,5,-5z"></path><g id="node_text3" fill="black"><text id="kity_text_67" text-rendering="inherit" font-size="12" dy=".8em" y="77.5" x="689.5">快速排序</text></g></g><g id="minder_node5"><g id="node_expander3" display="none" style="cursor: pointer;"><path id="kity_path_122" fill="white" stroke="gray" d="M679.5,135.5A6,6,0,1,1,667.5,135.5A6,6,0,1,1,679.5,135.5"></path><path id="kity_path_123" fill="none" stroke="gray"></path></g><path id="node_outline4" fill="none" stroke="none" d="M684.5,124.5h58a5,5,0,0,1,5,5v12a5,5,0,0,1,-5,5h-58a5,5,0,0,1,-5,-5v-12a5,5,0,0,1,5,-5z"></path><g id="node_text4" fill="black"><text id="kity_text_69" text-rendering="inherit" font-size="12" dy=".8em" y="129.5" x="689.5">冒泡排序</text></g></g><g id="minder_node6"><g id="node_expander4" display="none" style="cursor: pointer;"><path id="kity_path_125" fill="white" stroke="gray" d="M679.5,187.5A6,6,0,1,1,667.5,187.5A6,6,0,1,1,679.5,187.5"></path><path id="kity_path_126" fill="none" stroke="gray"></path></g><path id="node_outline5" fill="none" stroke="none" d="M684.5,176.5h46a5,5,0,0,1,5,5v12a5,5,0,0,1,-5,5h-46a5,5,0,0,1,-5,-5v-12a5,5,0,0,1,5,-5z"></path><g id="node_text5" fill="black"><text id="kity_text_71" text-rendering="inherit" font-size="12" dy=".8em" y="181.5" x="689.5">堆排序</text></g></g><g id="minder_node7"><g id="node_expander5" display="none" style="cursor: pointer;"><path id="kity_path_128" fill="white" stroke="gray" d="M679.5,239.5A6,6,0,1,1,667.5,239.5A6,6,0,1,1,679.5,239.5"></path><path id="kity_path_129" fill="none" stroke="gray"></path></g><path id="node_outline6" fill="none" stroke="none" d="M684.5,228.5h58a5,5,0,0,1,5,5v12a5,5,0,0,1,-5,5h-58a5,5,0,0,1,-5,-5v-12a5,5,0,0,1,5,-5z"></path><g id="node_text6" fill="black"><text id="kity_text_73" text-rendering="inherit" font-size="12" dy=".8em" y="233.5" x="689.5">希尔排序</text></g></g><g id="minder_node8"><g id="node_expander6" display="none" style="cursor: pointer;"><path id="kity_path_131" fill="white" stroke="gray" d="M679.5,291.5A6,6,0,1,1,667.5,291.5A6,6,0,1,1,679.5,291.5"></path><path id="kity_path_132" fill="none" stroke="gray"></path></g><path id="node_outline7" fill="none" stroke="none" d="M684.5,280.5h58a5,5,0,0,1,5,5v12a5,5,0,0,1,-5,5h-58a5,5,0,0,1,-5,-5v-12a5,5,0,0,1,5,-5z"></path><g id="node_text7" fill="black"><text id="kity_text_75" text-rendering="inherit" font-size="12" dy=".8em" y="285.5" x="689.5">插入排序</text></g></g><g id="minder_node9"><g id="node_expander7" display="none" style="cursor: pointer;"><path id="kity_path_134" fill="white" stroke="gray" d="M679.5,343.5A6,6,0,1,1,667.5,343.5A6,6,0,1,1,679.5,343.5"></path><path id="kity_path_135" fill="none" stroke="gray"></path></g><path id="node_outline8" fill="none" stroke="none" d="M684.5,332.5h58a5,5,0,0,1,5,5v12a5,5,0,0,1,-5,5h-58a5,5,0,0,1,-5,-5v-12a5,5,0,0,1,5,-5z"></path><g id="node_text8" fill="black"><text id="kity_text_77" text-rendering="inherit" font-size="12" dy=".8em" y="337.5" x="689.5">选择排序</text></g></g><g id="minder_node10"><g id="node_expander9" display="none" style="cursor: pointer;"><path id="kity_path_140" fill="white" stroke="gray" d="M643.5,417.5A6,6,0,1,1,631.5,417.5A6,6,0,1,1,643.5,417.5"></path><path id="kity_path_141" fill="none" stroke="gray"></path></g><path id="node_outline10" fill="rgb(238, 243, 246)" stroke="rgb(115, 161, 191)" d="M647.5,404.5h90a3,3,0,0,1,3,3v20a3,3,0,0,1,-3,3h-90a3,3,0,0,1,-3,-3v-20a3,3,0,0,1,3,-3z" stroke-width="1"></path><g id="node_text10" fill="black"><text id="kity_text_81" text-rendering="inherit" font-size="14" dy=".8em" y="410.5" x="664.5">二分查找</text></g></g><g id="minder_node11"><g id="node_expander10" display="none" style="cursor: pointer;"><path id="kity_path_143" fill="white" stroke="gray" d="M617.5,481.5A6,6,0,1,1,605.5,481.5A6,6,0,1,1,617.5,481.5"></path><path id="kity_path_144" fill="none" stroke="gray"></path></g><path id="node_outline11" fill="rgb(238, 243, 246)" stroke="rgb(115, 161, 191)" d="M621.5,468.5h90a3,3,0,0,1,3,3v20a3,3,0,0,1,-3,3h-90a3,3,0,0,1,-3,-3v-20a3,3,0,0,1,3,-3z" stroke-width="1"></path><g id="node_text11" fill="black"><text id="kity_text_83" text-rendering="inherit" font-size="14" dy=".8em" y="474.5" x="638.5">动态规划</text></g></g><g id="minder_node12"><g id="node_expander12" style="cursor: pointer;"><path id="kity_path_149" fill="white" stroke="gray" d="M617.5,547.5A6,6,0,1,1,605.5,547.5A6,6,0,1,1,617.5,547.5"></path><path id="kity_path_150" fill="none" stroke="gray" d="M607,547.5L616,547.5"></path></g><path id="node_outline13" fill="rgb(238, 243, 246)" stroke="rgb(115, 161, 191)" d="M621.5,534.5h62a3,3,0,0,1,3,3v20a3,3,0,0,1,-3,3h-62a3,3,0,0,1,-3,-3v-20a3,3,0,0,1,3,-3z" stroke-width="1"></path><g id="node_text13" fill="black"><text id="kity_text_87" text-rendering="inherit" font-size="14" dy=".8em" y="540.5" x="638.5">递归</text></g></g><g id="minder_node13"><g id="node_expander11" display="none" style="cursor: pointer;"><path id="kity_path_146" fill="white" stroke="gray" d="M726.5,547.5A6,6,0,1,1,714.5,547.5A6,6,0,1,1,726.5,547.5"></path><path id="kity_path_147" fill="none" stroke="gray"></path></g><path id="node_outline12" fill="none" stroke="none" d="M731.5,536.5h82a5,5,0,0,1,5,5v12a5,5,0,0,1,-5,5h-82a5,5,0,0,1,-5,-5v-12a5,5,0,0,1,5,-5z"></path><g id="node_text12" fill="black"><text id="kity_text_85" text-rendering="inherit" font-size="12" dy=".8em" y="541.5" x="736.5">优化：尾递归</text></g></g><g id="minder_node14"><g id="node_expander13" display="none" style="cursor: pointer;"><path id="kity_path_152" fill="white" stroke="gray" d="M311.5,281.5A6,6,0,1,1,299.5,281.5A6,6,0,1,1,311.5,281.5"></path><path id="kity_path_153" fill="none" stroke="gray"></path></g><path id="node_outline14" fill="rgb(238, 243, 246)" stroke="rgb(115, 161, 191)" d="M219.5,268.5h76a3,3,0,0,1,3,3v20a3,3,0,0,1,-3,3h-76a3,3,0,0,1,-3,-3v-20a3,3,0,0,1,3,-3z" stroke-width="1"></path><g id="node_text14" fill="black"><text id="kity_text_89" text-rendering="inherit" font-size="14" dy=".8em" y="274.5" x="236.5">位运算</text></g></g><g id="minder_node15"><g id="node_expander16" style="cursor: pointer;"><path id="kity_path_161" fill="white" stroke="gray" d="M311.5,371.5A6,6,0,1,1,299.5,371.5A6,6,0,1,1,311.5,371.5"></path><path id="kity_path_162" fill="none" stroke="gray" d="M301,371.5L310,371.5"></path></g><path id="node_outline17" fill="rgb(238, 243, 246)" stroke="rgb(115, 161, 191)" d="M237.5,358.5h58a3,3,0,0,1,3,3v20a3,3,0,0,1,-3,3h-58a3,3,0,0,1,-3,-3v-20a3,3,0,0,1,3,-3z" stroke-width="1"></path><g id="node_text17" fill="black"><text id="kity_text_95" text-rendering="inherit" font-size="14" dy=".8em" y="364.5" x="254.5">LRU</text></g></g><g id="minder_node16"><g id="node_expander14" display="none" style="cursor: pointer;"><path id="kity_path_155" fill="white" stroke="gray" d="M206.5,345.5A6,6,0,1,1,194.5,345.5A6,6,0,1,1,206.5,345.5"></path><path id="kity_path_156" fill="none" stroke="gray"></path></g><path id="node_outline15" fill="none" stroke="none" d="M83.5,334.5h106a5,5,0,0,1,5,5v12a5,5,0,0,1,-5,5h-106a5,5,0,0,1,-5,-5v-12a5,5,0,0,1,5,-5z"></path><g id="node_text15" fill="black"><text id="kity_text_91" text-rendering="inherit" font-size="12" dy=".8em" y="339.5" x="88.5">Hash表+双向链表</text></g></g><g id="minder_node17"><g id="node_expander15" display="none" style="cursor: pointer;"><path id="kity_path_158" fill="white" stroke="gray" d="M206.5,397.5A6,6,0,1,1,194.5,397.5A6,6,0,1,1,206.5,397.5"></path><path id="kity_path_159" fill="none" stroke="gray"></path></g><path id="node_outline16" fill="none" stroke="none" d="M25.5,386.5h164a5,5,0,0,1,5,5v12a5,5,0,0,1,-5,5h-164a5,5,0,0,1,-5,-5v-12a5,5,0,0,1,5,-5z"></path><g id="node_text16" fill="black"><text id="kity_text_93" text-rendering="inherit" font-size="12" dy=".8em" y="391.5" x="30.5">get\set都是O(1)时间复杂度</text></g></g><g id="minder_node18"><g id="node_expander17" display="none" style="cursor: pointer;"><path id="kity_path_164" fill="white" stroke="gray" d="M311.5,461.5A6,6,0,1,1,299.5,461.5A6,6,0,1,1,311.5,461.5"></path><path id="kity_path_165" fill="none" stroke="gray"></path></g><path id="node_outline18" fill="rgb(238, 243, 246)" stroke="rgb(115, 161, 191)" d="M79.5,448.5h216a3,3,0,0,1,3,3v20a3,3,0,0,1,-3,3h-216a3,3,0,0,1,-3,-3v-20a3,3,0,0,1,3,-3z" stroke-width="1"></path><g id="node_text18" fill="black"><text id="kity_text_97" text-rendering="inherit" font-size="14" dy=".8em" y="454.5" x="96.5">不通数据结构适用不通的算法</text></g></g></g></g></svg>